#N canvas 419 429 948 404 12;
#X obj 165 324 dac~;
#X text 570 50 to do:;
#X text 583 226 - put this on a Pi;
#X text 576 278 - if not \, copy files from stick to sounds folder;
#X text 576 250 - try with USB stick (mount stick to sounds);
#X obj 45 41 ys.librarySequencer 1;
#X connect 5 0 0 0;
#X connect 5 1 0 1;
