#N canvas 119 225 990 447 12;
#X obj 165 324 dac~;
#X obj 51 30 ys.librarySequencer 1;
#X obj 599 229 ys.comport;
#N canvas 625 211 678 550 mappings 1;
#X obj 24 10 r digital0;
#X obj 23 83 s 1-playstop_rcv;
#X obj 33 131 r analog0;
#X obj 155 166 s 1-fadeout_rcv;
#X obj 442 379 / 1023;
#X obj 38 287 / 1023;
#X obj 199 288 / 1023;
#X obj 355 287 / 1023;
#X obj 495 284 / 1023;
#X obj 37 214 s 1-bpm_rcv;
#X obj 498 461 s 1-randomchance_rcv;
#X obj 448 206 s 1-numsteps_playing_rcv;
#X obj 38 311 s 1-reversechance_rcv;
#X obj 199 312 s 1-pitchrange_rcv;
#X obj 355 311 s 1-pan_rand_rcv;
#X obj 495 308 s 1-volume_rand_rcv;
#X obj 156 93 r analog1;
#X obj 442 355 r analog2;
#X obj 419 22 r analog3;
#X obj 38 263 r analog4;
#X obj 199 264 r analog5;
#X obj 355 263 r analog6;
#X obj 495 260 r analog7;
#X obj 33 155 / 3;
#X obj 33 179 + 20;
#X obj 156 3 r digital1;
#X obj 288 19 r digital2;
#X obj 156 70 s 1-play_next_rcv;
#X obj 288 76 s 1-new_seed_rcv;
#X obj 156 27 sel 1;
#X obj 288 43 sel 1;
#X obj 24 34 change;
#X obj 423 90 * 48;
#X obj 423 114 + 2;
#X obj 423 138 i;
#X obj 156 117 / 10000;
#X obj 156 141 + 0.001;
#X obj 428 174 change;
#X floatatom 473 148 5 0 0 0 - - - 0;
#X obj 551 59 / 4;
#X obj 551 106 i;
#X floatatom 548 138 5 0 0 0 - - - 0;
#X obj 420 66 / 255;
#X obj 126 364 notein;
#X obj 131 386 pack 0 0;
#X obj 131 410 route 60;
#X obj 135 469 sel 100;
#X obj 135 442 change;
#X obj 135 493 bng 19 250 50 0 empty empty empty 0 -10 0 12 #fcfcfc #000000 #000000;
#X obj 135 523 s 1-play_next_rcv;
#X obj 164 212 print playStop;
#X obj 339 210 print playNext;
#X obj 349 447 print playchance;
#X obj 469 428 * 4;
#X text 510 423 THIS IS BAD;
#X connect 0 0 31 0;
#X connect 2 0 23 0;
#X connect 4 0 52 0;
#X connect 4 0 53 0;
#X connect 5 0 12 0;
#X connect 6 0 13 0;
#X connect 7 0 14 0;
#X connect 8 0 15 0;
#X connect 16 0 35 0;
#X connect 17 0 4 0;
#X connect 18 0 39 0;
#X connect 19 0 5 0;
#X connect 20 0 6 0;
#X connect 21 0 7 0;
#X connect 22 0 8 0;
#X connect 23 0 24 0;
#X connect 24 0 9 0;
#X connect 25 0 29 0;
#X connect 26 0 30 0;
#X connect 29 0 27 0;
#X connect 29 0 51 0;
#X connect 30 0 28 0;
#X connect 31 0 1 0;
#X connect 31 0 50 0;
#X connect 32 0 33 0;
#X connect 33 0 34 0;
#X connect 34 0 37 0;
#X connect 34 0 38 0;
#X connect 35 0 36 0;
#X connect 36 0 3 0;
#X connect 37 0 11 0;
#X connect 39 0 40 0;
#X connect 40 0 41 0;
#X connect 41 0 42 0;
#X connect 42 0 32 0;
#X connect 43 0 44 0;
#X connect 43 1 44 1;
#X connect 44 0 45 0;
#X connect 45 0 47 0;
#X connect 46 0 48 0;
#X connect 47 0 46 0;
#X connect 48 0 49 0;
#X connect 53 0 10 0;
#X restore 590 268 pd mappings;
#X text 608 61 need to figure out better mapping for the fadeout (maybe done?);
#X connect 1 0 0 0;
#X connect 1 1 0 1;
