#N canvas 235 54 1169 590 10;
#X obj 65 268 inlet;
#X obj 67 385 outlet;
#X floatatom 67 310 5 0 0 0 - - - 0;
#X floatatom 67 362 5 0 0 0 - - - 0;
#X floatatom 763 399 5 0 0 0 - - - 0;
#X obj 559 322 until;
#X obj 565 285 i;
#X obj 548 344 ys.loopcounter 16;
#X obj 569 242 bng 15 250 50 0 empty empty empty 17 7 0 10 #fcfcfc #000000 #000000;
#X obj 542 385 t b f;
#X obj 385 456 vurnilla 35;
#X msg 337 403 seed \$1;
#X obj 383 372 t f b;
#X msg 405 399 clear;
#X obj 460 205 i;
#X obj 464 170 bng 15 250 50 0 empty empty empty 17 7 0 10 #fcfcfc #000000 #000000;
#X msg 878 374 \; sample_selector bounds 0 \$2 \$1 0;
#X obj 459 406 r numsamples;
#X obj 461 122 t b b b f;
#X floatatom 856 669 5 0 0 0 - - - 0;
#X text 833 599 random filename;
#X obj 881 773 print random filename;
#X obj 856 691 bng 15 250 50 0 empty empty empty 17 7 0 10 #fcfcfc #000000 #000000;
#X obj 1056 662 print;
#X msg 1056 641 --------;
#X floatatom 625 783 5 0 0 0 - - - 0;
#X obj 630 830 print;
#X obj 591 524 bng 15 250 50 0 empty empty empty 17 7 0 10 #fcfcfc #000000 #000000;
#X obj 592 543 t b b;
#X msg 592 564 dir;
#X obj 592 585 pdcontrol;
#X obj 609 450 loadbang;
#X obj 667 624 pack s s;
#X obj 711 515 bng 16 250 50 0 empty empty empty 0 -8 0 10 #fcfcfc #000000 #000000;
#X obj 856 620 r \$1-dn;
#X obj 601 483 t b b;
#X msg 569 672 symbol \$2/\$1;
#X obj 678 451 bng 16 250 50 0 empty empty empty 0 -8 0 10 #fcfcfc #000000 #000000;
#X obj 827 722 s \$1-numsamples_rcv;
#X obj 582 725 s \$1-sample_library;
#X obj 385 493 array set \$1-sample_selector;
#X obj 760 436 array size \$1-sample_selector;
#X obj 223 288 table \$1-sample_selector;
#X obj 301 224 s \$1-sample_selector_go;
#X obj 67 335 tabread \$1-sample_selector;
#X obj 675 244 r \$1-num_voices;
#X obj 761 370 r \$1-num_voices;
#X obj 464 97 r \$1-seed;
#X obj 663 547 symbol sounds;
#X obj 375 163 bng 16 250 50 0 empty empty empty 0 -8 0 10 #fcfcfc #000000 #000000;
#X obj 394 596 random;
#X obj 101 785 file glob;
#X msg 101 810 \$2 \$1;
#X obj 101 835 route 0 1;
#X obj 124 863 symbol;
#X obj 148 810 bng 15 250 50 0 empty empty empty 17 7 0 10 #fcfcfc #000000 #000000;
#X obj 254 937 list;
#X msg 101 758 symbol \$1/*.wav \, symbol \$1/*/;
#X obj 312 783 file glob;
#X msg 312 807 \$2 \$1;
#X obj 312 832 route 0 1;
#X obj 335 860 symbol;
#X obj 359 807 bng 15 250 50 0 empty empty empty 17 7 0 10 #fcfcfc #000000 #000000;
#X obj 227 908 t b a;
#X obj 228 992 del 200;
#X obj 101 565 bng 15 250 50 0 empty empty empty 17 7 0 10 #fcfcfc #000000 #000000;
#X obj 102 584 t b b;
#X msg 104 620 dir;
#X obj 104 641 pdcontrol;
#X obj 101 539 loadbang;
#X msg 103 667 symbol \$1/sounds/;
#X msg 223 638 -1;
#X floatatom 225 1047 5 0 0 0 - - - 0;
#X obj 225 1071 s numsounds;
#X obj 203 567 text define soundlist;
#X obj 222 666 text delete soundlist;
#X obj 225 1025 text size soundlist;
#X obj 253 961 text insert soundlist 1e+07;
#X obj 394 649 text get soundlist;
#X obj 428 572 r numsounds;
#X obj 452 603 r select_sound;
#X obj 392 548 r randomsound;
#X obj 394 677 s selected_sound;
#X obj 302 1070 s numsamples_rcv;
#X text 283 1096 only need one of these \, BUT WHICH ONE;
#X obj 172 541 r reloadsounds;
#X obj 630 806 text get soundlist;
#X obj 856 647 text size soundlist;
#X obj 39 706 print;
#X msg 321 753 symbol \$1/*.aif \, symbol \$1/*/;
#X obj 390 823 file glob;
#X msg 390 847 \$2 \$1;
#X obj 390 872 route 0 1;
#X obj 413 900 symbol;
#X obj 437 847 bng 15 250 50 0 empty empty empty 17 7 0 10 #fcfcfc #000000 #000000;
#X obj 101 703 t s s s;
#X msg 399 793 symbol \$1/*.aiff \, symbol \$1/*/;
#X text 486 854 comment;
#X connect 0 0 2 0;
#X connect 2 0 44 0;
#X connect 3 0 1 0;
#X connect 4 0 41 0;
#X connect 5 0 7 0;
#X connect 6 0 5 0;
#X connect 7 0 9 0;
#X connect 8 0 6 0;
#X connect 9 0 10 0;
#X connect 9 1 40 1;
#X connect 10 0 40 0;
#X connect 11 0 10 0;
#X connect 12 0 11 0;
#X connect 12 1 13 0;
#X connect 13 0 10 0;
#X connect 14 0 12 0;
#X connect 15 0 14 0;
#X connect 17 0 10 1;
#X connect 18 0 43 0;
#X connect 18 0 49 0;
#X connect 18 1 8 0;
#X connect 18 2 15 0;
#X connect 18 3 14 1;
#X connect 19 0 22 0;
#X connect 19 0 38 0;
#X connect 24 0 23 0;
#X connect 25 0 86 0;
#X connect 27 0 28 0;
#X connect 28 0 29 0;
#X connect 29 0 30 0;
#X connect 30 0 32 1;
#X connect 31 0 35 0;
#X connect 32 0 36 0;
#X connect 33 0 48 0;
#X connect 34 0 24 0;
#X connect 34 0 87 0;
#X connect 35 0 33 0;
#X connect 35 1 27 0;
#X connect 36 0 39 0;
#X connect 37 0 35 0;
#X connect 44 0 3 0;
#X connect 45 0 6 1;
#X connect 45 0 7 2;
#X connect 46 0 4 0;
#X connect 47 0 18 0;
#X connect 48 0 32 0;
#X connect 50 0 78 0;
#X connect 51 0 52 0;
#X connect 51 1 55 0;
#X connect 52 0 53 0;
#X connect 53 0 63 0;
#X connect 53 1 54 0;
#X connect 54 0 57 0;
#X connect 56 0 77 0;
#X connect 56 0 88 0;
#X connect 57 0 51 0;
#X connect 58 0 59 0;
#X connect 58 1 62 0;
#X connect 59 0 60 0;
#X connect 60 0 63 0;
#X connect 60 1 61 0;
#X connect 61 0 89 0;
#X connect 63 0 64 0;
#X connect 63 1 56 0;
#X connect 64 0 76 0;
#X connect 65 0 66 0;
#X connect 66 0 67 0;
#X connect 66 1 71 0;
#X connect 67 0 68 0;
#X connect 68 0 70 0;
#X connect 69 0 65 0;
#X connect 70 0 95 0;
#X connect 71 0 75 0;
#X connect 72 0 73 0;
#X connect 72 0 83 0;
#X connect 76 0 72 0;
#X connect 78 0 82 0;
#X connect 79 0 50 1;
#X connect 80 0 78 0;
#X connect 81 0 50 0;
#X connect 85 0 65 0;
#X connect 86 0 26 0;
#X connect 87 0 19 0;
#X connect 89 0 58 0;
#X connect 90 0 91 0;
#X connect 90 1 94 0;
#X connect 91 0 92 0;
#X connect 92 0 63 0;
#X connect 92 1 93 0;
#X connect 93 0 96 0;
#X connect 95 0 57 0;
#X connect 95 1 89 0;
#X connect 95 2 96 0;
#X connect 96 0 90 0;
