#N canvas 271 121 1169 590 10;
#X obj 65 268 inlet;
#X obj 67 385 outlet;
#X floatatom 67 310 5 0 0 0 - - - 0;
#X floatatom 67 362 5 0 0 0 - - - 0;
#X floatatom 763 399 5 0 0 0 - - - 0;
#X obj 559 322 until;
#X obj 565 285 i;
#X obj 548 344 ys.loopcounter 16;
#X obj 569 242 bng 15 250 50 0 empty empty empty 17 7 0 10 #fcfcfc #000000 #000000;
#X obj 542 385 t b f;
#X obj 385 456 vurnilla 35;
#X msg 337 403 seed \$1;
#X obj 383 372 t f b;
#X msg 405 399 clear;
#X obj 460 205 i;
#X obj 464 170 bng 15 250 50 0 empty empty empty 17 7 0 10 #fcfcfc #000000 #000000;
#X msg 878 374 \; sample_selector bounds 0 \$2 \$1 0;
#X obj 459 406 r numsamples;
#X obj 461 122 t b b b f;
#X obj 99 685 file glob;
#X msg 99 710 \$2 \$1;
#X obj 99 735 route 0 1;
#X obj 122 763 symbol;
#X obj 146 710 bng 15 250 50 0 empty empty empty 17 7 0 10 #fcfcfc #000000 #000000;
#X obj 227 832 list;
#X floatatom 856 669 5 0 0 0 - - - 0;
#X obj 99 785 print wav-files;
#X msg 99 658 symbol \$1/*.wav \, symbol \$1/*/;
#X text 833 599 random filename;
#X obj 881 773 print random filename;
#X obj 310 682 file glob;
#X msg 310 707 \$2 \$1;
#X obj 310 732 route 0 1;
#X obj 333 760 symbol;
#X obj 357 707 bng 15 250 50 0 empty empty empty 17 7 0 10 #fcfcfc #000000 #000000;
#X text 379 707 nothing;
#X obj 310 782 print aiff-files;
#X msg 310 654 symbol \$1/*.aiff \, symbol \$1/*/;
#X obj 226 762 s \$0-totxt;
#X obj 225 787 r \$0-totxt;
#X obj 225 808 t b a;
#X obj 856 691 bng 15 250 50 0 empty empty empty 17 7 0 10 #fcfcfc #000000 #000000;
#X obj 99 603 t s s;
#X obj 99 847 del 200;
#X obj 1056 662 print;
#X msg 1056 641 --------;
#X obj 630 806 text get \$0-dirfiles;
#X floatatom 625 783 5 0 0 0 - - - 0;
#X obj 630 830 print;
#X obj 591 524 bng 15 250 50 0 empty empty empty 17 7 0 10 #fcfcfc #000000 #000000;
#X obj 592 543 t b b;
#X msg 592 564 dir;
#X obj 592 585 pdcontrol;
#X obj 609 450 loadbang;
#X obj 667 624 pack s s;
#X obj 711 515 bng 16 250 50 0 empty empty empty 0 -8 0 10 #fcfcfc #000000 #000000;
#X obj 227 857 text insert \$1-dirfiles 1e+07;
#X obj 414 856 text define \$1-dirfiles;
#X obj 856 647 text size \$1-dirfiles;
#X obj 99 870 s \$1-dn;
#X obj 856 620 r \$1-dn;
#X obj 601 483 t b b;
#X msg 569 672 symbol \$2/\$1;
#X obj 678 451 bng 16 250 50 0 empty empty empty 0 -8 0 10 #fcfcfc #000000 #000000;
#X obj 827 722 s \$1-numsamples_rcv;
#X obj 582 725 s \$1-sample_library;
#X obj 83 569 r \$1-sample_library;
#X obj 385 493 array set \$1-sample_selector;
#X obj 760 436 array size \$1-sample_selector;
#X obj 223 288 table \$1-sample_selector;
#X obj 301 224 s \$1-sample_selector_go;
#X obj 67 335 tabread \$1-sample_selector;
#X obj 675 244 r \$1-num_voices;
#X obj 761 370 r \$1-num_voices;
#X obj 464 97 r \$1-seed;
#X obj 663 547 symbol sounds;
#X connect 0 0 2 0;
#X connect 2 0 71 0;
#X connect 3 0 1 0;
#X connect 4 0 68 0;
#X connect 5 0 7 0;
#X connect 6 0 5 0;
#X connect 7 0 9 0;
#X connect 8 0 6 0;
#X connect 9 0 10 0;
#X connect 9 1 67 1;
#X connect 10 0 67 0;
#X connect 11 0 10 0;
#X connect 12 0 11 0;
#X connect 12 1 13 0;
#X connect 13 0 10 0;
#X connect 14 0 12 0;
#X connect 15 0 14 0;
#X connect 17 0 10 1;
#X connect 18 0 70 0;
#X connect 18 1 8 0;
#X connect 18 2 15 0;
#X connect 18 3 14 1;
#X connect 19 0 20 0;
#X connect 19 1 23 0;
#X connect 20 0 21 0;
#X connect 21 0 38 0;
#X connect 21 1 22 0;
#X connect 22 0 27 0;
#X connect 24 0 56 0;
#X connect 25 0 41 0;
#X connect 25 0 64 0;
#X connect 27 0 19 0;
#X connect 30 0 31 0;
#X connect 30 1 34 0;
#X connect 31 0 32 0;
#X connect 32 0 38 0;
#X connect 32 1 33 0;
#X connect 33 0 37 0;
#X connect 37 0 30 0;
#X connect 39 0 40 0;
#X connect 40 0 43 0;
#X connect 40 1 24 0;
#X connect 42 0 27 0;
#X connect 42 1 37 0;
#X connect 43 0 59 0;
#X connect 45 0 44 0;
#X connect 46 0 48 0;
#X connect 47 0 46 0;
#X connect 49 0 50 0;
#X connect 50 0 51 0;
#X connect 51 0 52 0;
#X connect 52 0 54 1;
#X connect 53 0 61 0;
#X connect 54 0 62 0;
#X connect 55 0 75 0;
#X connect 58 0 25 0;
#X connect 60 0 45 0;
#X connect 60 0 58 0;
#X connect 61 0 55 0;
#X connect 61 1 49 0;
#X connect 62 0 65 0;
#X connect 63 0 61 0;
#X connect 66 0 42 0;
#X connect 71 0 3 0;
#X connect 72 0 6 1;
#X connect 72 0 7 2;
#X connect 73 0 4 0;
#X connect 74 0 18 0;
#X connect 75 0 54 0;
