#N canvas 403 25 1001 847 10;
#X obj 421 950 *~;
#X obj 436 999 outlet~;
#X obj 183 59 inlet;
#X obj 362 679 line~;
#X floatatom 88 381 5 0 0 0 - - - 0;
#X obj 215 352 * 100;
#X obj 217 443 t b;
#X obj 270 445 t b;
#X obj 214 420 moses 75;
#X obj 463 389 * 100;
#X obj 508 449 t b;
#X msg 453 485 1;
#X msg 505 489 0;
#X text 29 381 pitch;
#X text 506 369 envelope;
#X text 197 472 forward/reverse;
#X msg 369 648 \$1 \$2;
#X obj 473 611 pack 0 50;
#X msg 472 650 \$1 \$2;
#X obj 457 415 moses 65;
#X obj 450 527 bng 15 250 50 0 empty empty empty 17 7 0 10 #fcfcfc #000000 #000000;
#X floatatom 64 81 5 0 0 0 - - - 0;
#X obj 62 101 * 1;
#X obj 65 127 i;
#X obj 112 194 change;
#X obj 107 164 %;
#X obj 505 999 outlet~;
#X obj 487 950 *~;
#X obj 39 400 * 2;
#X floatatom 39 431 5 0 0 0 - - - 0;
#X obj 79 473 * 0;
#X floatatom 79 495 5 0 0 0 - - - 0;
#X floatatom 79 536 5 0 0 0 - - - 0;
#X obj 79 514 + 0.5;
#X obj 138 435 - 1;
#X obj 140 455 abs;
#X floatatom 140 477 5 0 0 0 - - - 0;
#X obj 446 974 *~;
#X obj 508 970 *~;
#X obj 690 818 line~;
#X obj 807 817 line~;
#X obj 872 307 + 2;
#X obj 888 370 %;
#X obj 718 371 %;
#X obj 702 308 + 8;
#X obj 69 609 line;
#X msg 65 582 \$1 \$2;
#X obj 62 561 pack 0 0;
#X obj 466 310 %;
#X obj 246 299 %;
#X obj 233 249 + 18;
#X obj 370 609 pack 0 5;
#X obj 516 535 bng 15 250 50 0 empty empty empty 17 7 0 10 #fcfcfc #000000 #000000;
#X obj 232 220 + \$1;
#X obj 450 269 + \$1;
#X obj 61 335 %;
#X obj 59 236 + \$1;
#X obj 60 265 + 25;
#X floatatom 692 628 0 0 0 0 - - - 0;
#X obj 692 651 dbtorms;
#X obj 692 674 pack 0 10;
#X obj 336 823 delay;
#X floatatom 188 932 5 0 0 0 - - - 0;
#X floatatom 188 973 10 0 0 0 - - - 0;
#X floatatom 535 596 5 0 0 0 - - - 0;
#X obj 207 1020 *;
#X floatatom 207 1041 11 0 0 0 - - - 0;
#X obj 434 743 bng 15 250 50 0 empty empty empty 17 7 0 10 #fcfcfc #000000 #000000;
#X obj 358 868 bng 15 250 50 0 empty empty empty 17 7 0 10 #fcfcfc #000000 #000000;
#X msg 452 700 0 5;
#X obj 188 952 / 44.1;
#X obj 687 546 abs;
#X floatatom 687 567 5 0 0 0 - - - 0;
#X obj 682 454 * 0;
#X floatatom 682 475 5 0 0 0 - - - 0;
#X obj 682 495 - 1;
#X floatatom 682 516 5 0 0 0 - - - 0;
#X obj 707 264 + \$1;
#X obj 455 447 t b b;
#X msg 214 498 1;
#X msg 264 496 2;
#X obj 219 546 i;
#X floatatom 219 567 5 0 0 0 - - - 0;
#X obj 220 591 sel 1 2;
#X obj 221 614 bng 15 250 50 0 empty empty empty 17 7 0 10 #fcfcfc #000000 #000000;
#X obj 239 614 bng 15 250 50 0 empty empty empty 17 7 0 10 #fcfcfc #000000 #000000;
#X obj 267 384 * 100;
#X obj 580 392 * 100;
#X obj 84 647 ys.soundfile_loop_mono \$1 1 \$2;
#X obj 55 53 r \$2-mastercounter;
#X obj 127 139 r \$2-numsteps;
#X obj 83 291 r \$2-numsteps;
#X obj 262 269 r \$2-numsteps;
#X obj 488 266 r \$2-numsteps;
#X obj 910 326 r \$2-numsteps;
#X obj 740 327 r \$2-numsteps;
#X obj 113 406 r \$2-pitchrange;
#X obj 117 538 r \$2-pitchport;
#X obj 267 363 r \$2-reversechance;
#X obj 535 575 r \$2-fadeout;
#X obj 432 573 r \$2-fadein;
#X obj 702 435 r \$2-volume_rand;
#X obj 580 371 r \$2-randomchance;
#X obj 102 982 r \$2-fadeout;
#X obj 60 358 ys.randomarray 10 \$2;
#X obj 243 326 ys.randomarray 11 \$2;
#X obj 469 341 ys.randomarray 12 \$2;
#X obj 684 409 ys.randomarray 13 \$2;
#X obj 899 413 ys.randomarray 14 \$2;
#X obj 356 894 s \$1-stopsound;
#X obj 188 993 t b f;
#X obj 915 448 hsl 128 15 0 1 0 0 empty empty empty -2 -8 0 10 #fcfcfc #000000 #000000 0 1;
#X obj 919 700 tabread hann;
#X obj 1021 701 tabread hann;
#X floatatom 919 721 5 0 0 0 - - - 0;
#X floatatom 1021 722 5 0 0 0 - - - 0;
#X obj 909 474 * 2;
#X obj 909 495 - 1;
#X floatatom 1007 611 5 0 0 0 - - - 0;
#X obj 866 761 tabread hann;
#X floatatom 866 782 5 0 0 0 - - - 0;
#X floatatom 864 723 5 0 0 0 - - - 0;
#X obj 950 497 hsl 128 15 -1 1 0 0 empty empty empty -2 -8 0 10 #fcfcfc #000000 #000000 0 1;
#X obj 906 564 * 1;
#X obj 970 588 hsl 128 15 -1 1 0 0 empty empty empty -2 -8 0 10 #fcfcfc #000000 #000000 0 1;
#X obj 903 597 * 110.25;
#X obj 902 628 + 110.25;
#X obj 878 663 expr 220.5-$f1;
#X msg 689 769 \$1 5;
#X msg 802 773 \$1 5;
#X obj 974 553 r \$2-pan_rand;
#X floatatom 692 695 5 0 0 0 - - - 0;
#X obj 689 592 * 100;
#X obj 580 736 *~;
#X obj 628 754 line~;
#X msg 627 722 \$1 5;
#X text 66 1041 calculated play length;
#X text 234 1016 length is relative to soundfile;
#X obj 254 737 r \$2-fadeout;
#X obj 254 779 + 10;
#X obj 273 677 r debugfademax;
#X text 235 999 original fadeout system;
#X text 276 1032 this makes it sound a bit overwhelming and results in (sometimes cool) long tail of a sound on stop.;
#X obj 75 778 random 6000;
#X obj 75 799 + 2000;
#X obj 74 740 r \$2-new_seed;
#X obj 21 717 loadbang;
#X msg 166 742 seed \$1;
#X obj 165 711 i \$1;
#X obj 161 686 loadbang;
#X obj 254 758 * 1500;
#X connect 0 0 37 0;
#X connect 3 0 0 1;
#X connect 3 0 27 1;
#X connect 4 0 28 0;
#X connect 5 0 8 0;
#X connect 6 0 79 0;
#X connect 7 0 80 0;
#X connect 8 0 7 0;
#X connect 8 1 6 0;
#X connect 9 0 19 0;
#X connect 10 0 12 0;
#X connect 11 0 20 0;
#X connect 11 0 51 0;
#X connect 12 0 17 0;
#X connect 12 0 52 0;
#X connect 16 0 3 0;
#X connect 17 0 18 0;
#X connect 19 0 78 0;
#X connect 19 1 10 0;
#X connect 20 0 67 0;
#X connect 21 0 22 0;
#X connect 22 0 23 0;
#X connect 23 0 25 0;
#X connect 24 0 53 0;
#X connect 24 0 54 0;
#X connect 24 0 56 0;
#X connect 24 0 77 0;
#X connect 25 0 24 0;
#X connect 27 0 38 0;
#X connect 28 0 29 0;
#X connect 29 0 30 0;
#X connect 30 0 31 0;
#X connect 31 0 33 0;
#X connect 32 0 47 0;
#X connect 33 0 32 0;
#X connect 34 0 35 0;
#X connect 35 0 36 0;
#X connect 36 0 33 1;
#X connect 37 0 1 0;
#X connect 38 0 26 0;
#X connect 39 0 37 1;
#X connect 40 0 38 1;
#X connect 41 0 42 0;
#X connect 42 0 108 0;
#X connect 43 0 107 0;
#X connect 44 0 43 0;
#X connect 45 0 88 1;
#X connect 46 0 45 0;
#X connect 47 0 46 0;
#X connect 48 0 106 0;
#X connect 49 0 105 0;
#X connect 50 0 49 0;
#X connect 51 0 16 0;
#X connect 53 0 50 0;
#X connect 54 0 48 0;
#X connect 55 0 104 0;
#X connect 56 0 57 0;
#X connect 57 0 55 0;
#X connect 58 0 59 0;
#X connect 59 0 60 0;
#X connect 60 0 131 0;
#X connect 61 0 68 0;
#X connect 62 0 70 0;
#X connect 63 0 110 0;
#X connect 65 0 66 0;
#X connect 67 0 61 0;
#X connect 68 0 69 0;
#X connect 68 0 109 0;
#X connect 69 0 3 0;
#X connect 70 0 63 0;
#X connect 71 0 72 0;
#X connect 72 0 132 0;
#X connect 73 0 74 0;
#X connect 74 0 75 0;
#X connect 75 0 76 0;
#X connect 76 0 71 0;
#X connect 77 0 44 0;
#X connect 77 0 41 0;
#X connect 78 0 11 0;
#X connect 78 1 81 0;
#X connect 79 0 81 1;
#X connect 80 0 81 1;
#X connect 81 0 82 0;
#X connect 82 0 83 0;
#X connect 83 0 84 0;
#X connect 83 1 85 0;
#X connect 84 0 88 4;
#X connect 85 0 88 5;
#X connect 86 0 8 1;
#X connect 87 0 19 1;
#X connect 88 0 133 0;
#X connect 88 2 62 0;
#X connect 89 0 21 0;
#X connect 90 0 25 1;
#X connect 91 0 55 1;
#X connect 92 0 49 1;
#X connect 93 0 48 1;
#X connect 94 0 42 1;
#X connect 95 0 43 1;
#X connect 96 0 30 1;
#X connect 96 0 34 0;
#X connect 97 0 47 1;
#X connect 98 0 86 0;
#X connect 99 0 17 1;
#X connect 99 0 64 0;
#X connect 100 0 51 1;
#X connect 101 0 73 1;
#X connect 102 0 87 0;
#X connect 103 0 65 0;
#X connect 104 0 4 0;
#X connect 105 0 5 0;
#X connect 106 0 9 0;
#X connect 107 0 73 0;
#X connect 108 0 111 0;
#X connect 110 0 65 0;
#X connect 110 1 65 1;
#X connect 111 0 116 0;
#X connect 112 0 114 0;
#X connect 113 0 115 0;
#X connect 114 0 128 0;
#X connect 115 0 129 0;
#X connect 116 0 117 0;
#X connect 117 0 122 0;
#X connect 117 0 123 0;
#X connect 119 0 120 0;
#X connect 121 0 119 0;
#X connect 123 0 124 0;
#X connect 123 0 125 0;
#X connect 125 0 118 0;
#X connect 125 0 126 0;
#X connect 126 0 113 0;
#X connect 126 0 127 0;
#X connect 127 0 112 0;
#X connect 128 0 39 0;
#X connect 129 0 40 0;
#X connect 130 0 123 1;
#X connect 131 0 135 0;
#X connect 132 0 58 0;
#X connect 133 0 0 0;
#X connect 133 0 27 0;
#X connect 134 0 133 1;
#X connect 135 0 134 0;
#X connect 138 0 150 0;
#X connect 139 0 61 1;
#X connect 140 0 150 1;
#X connect 143 0 144 0;
#X connect 145 0 143 0;
#X connect 146 0 143 0;
#X connect 147 0 143 0;
#X connect 148 0 147 0;
#X connect 149 0 148 0;
#X connect 150 0 139 0;
