#N canvas 62 116 890 547 10;
#X obj 29 25 cnv 15 440 220 empty \$1-main_canvas_rcv empty 8 12 0 14 #ffe3c6 #404040 0;
#X obj 42 144 hsl 128 15 2 50 0 1 \$1-numsteps_playing \$1-numsteps_playing_rcv number\ of\ steps -2 8 1 12 #fc0400 #9c9c9c #fcfcfc 0 1;
#X obj 42 163 hsl 128 15 0 1 0 1 \$1-randomchance \$1-randomchance_rcv chance\ of\ playback -2 8 1 12 #fc0400 #9c9c9c #fcfcfc 12700 1;
#X obj 41 55 tgl 25 1 \$1-playstop \$1-playstop_rcv Play/Stop 26 7 0 10 #c6ffc7 #000000 #000000 1 1;
#X obj 42 200 hsl 128 15 0 1 0 1 \$1-reversechance \$1-reversechance_rcv chance\ of\ reverse -2 8 1 12 #fc0400 #9c9c9c #fcfcfc 0 1;
#N canvas 315 218 954 680 guts 0;
#X obj 21 325 *~;
#X obj 49 296 line~;
#X msg 46 266 1 20;
#X obj 38 241 t b b;
#X msg 86 266 0;
#X obj 140 237 t b b;
#X obj 54 176 sel 0 1;
#X msg 791 391 \; pd dsp 1;
#X obj 795 368 bng 15 250 50 0 empty empty empty 17 7 0 10 #fcfcfc #000000 #000000;
#X obj 791 309 loadbang;
#X obj 791 337 delay 1000;
#X obj 147 327 *~;
#X msg 121 259 0 1000;
#N canvas 559 25 845 847 clocking 0;
#X floatatom 150 92 5 0 0 0 - - - 0;
#X obj 183 516 spigot;
#X obj 77 211 tgl 15 0 empty empty empty 17 7 0 10 #fcfcfc #000000 #000000 0 1;
#X obj 79 281 bng 15 250 50 0 empty empty empty 17 7 0 10 #fcfcfc #000000 #000000;
#X obj 78 330 + 1;
#X floatatom 76 363 5 0 0 0 - - - 0;
#X msg 77 304 1;
#X obj 73 411 %;
#X floatatom 73 432 5 0 0 0 - - - 0;
#X obj 77 248 metro 200;
#X obj 162 190 abs;
#X floatatom 162 211 5 0 0 0 - - - 0;
#X obj 162 168 - 680;
#X obj 147 112 * 600;
#X obj 324 513 sel 0;
#X obj 322 542 bng 15 250 50 0 empty empty empty 17 7 0 10 #fcfcfc #000000 #000000;
#X msg 343 611 1;
#X msg 313 613 0;
#X obj 327 662 change;
#X obj 348 361 ys.randomarray 100;
#X floatatom 348 382 5 0 0 0 - - - 0;
#X obj 390 399 tgl 15 0 empty empty empty 17 7 0 10 #fcfcfc #000000 #000000 0 1;
#X obj 309 419 spigot;
#X floatatom 309 440 5 0 0 0 - - - 0;
#X floatatom 363 138 5 0 0 0 - - - 0;
#X obj 363 158 expr 60000 / $f1;
#X floatatom 363 179 5 0 0 0 - - - 0;
#X obj 378 206 / 4;
#X floatatom 378 227 5 0 0 0 - - - 0;
#X obj 400 256 s rate_rcv;
#X obj 428 434 sel 0;
#X text 226 513 why?!;
#X obj 174 292 r \$1-numsteps_playing;
#X obj 426 394 r \$1-rate_variation;
#X obj 163 60 r \$1-rate;
#X obj 363 117 r \$1-bpm;
#X obj 156 278 r \$1-play_next;
#X obj 75 170 r \$1-playstop;
#X obj 71 515 s \$1-mastercounter;
#X obj 181 555 s \$1-location_view;
#X obj 223 486 r \$1-playstop;
#X obj 369 499 s \$1-rate_rcv;
#X obj 327 683 s \$1-loop_light;
#X msg 171 381 \; \$2-location_view range 0 \$1;
#X obj 215 328 i \$1;
#X obj 193 352 pack 0 0;
#X obj 247 313 loadbang;
#X floatatom 158 320 5 0 0 0 - - - 0;
#X obj 144 357 f;
#X obj 135 437 sel 0;
#X msg 135 458 0;
#X connect 0 0 13 0;
#X connect 2 0 9 0;
#X connect 3 0 6 0;
#X connect 3 0 48 0;
#X connect 4 0 5 0;
#X connect 5 0 4 1;
#X connect 5 0 7 0;
#X connect 6 0 4 0;
#X connect 7 0 8 0;
#X connect 8 0 1 0;
#X connect 8 0 14 0;
#X connect 8 0 19 0;
#X connect 8 0 38 0;
#X connect 8 0 39 0;
#X connect 8 0 49 0;
#X connect 9 0 3 0;
#X connect 10 0 11 0;
#X connect 11 0 9 1;
#X connect 12 0 10 0;
#X connect 13 0 12 0;
#X connect 14 0 15 0;
#X connect 14 1 16 0;
#X connect 15 0 17 0;
#X connect 16 0 18 0;
#X connect 17 0 18 0;
#X connect 18 0 42 0;
#X connect 19 0 20 0;
#X connect 20 0 22 0;
#X connect 21 0 22 1;
#X connect 21 0 30 0;
#X connect 22 0 23 0;
#X connect 22 0 41 0;
#X connect 24 0 25 0;
#X connect 25 0 26 0;
#X connect 26 0 27 0;
#X connect 27 0 28 0;
#X connect 28 0 29 0;
#X connect 28 0 9 1;
#X connect 30 0 24 0;
#X connect 32 0 45 0;
#X connect 32 0 47 0;
#X connect 33 0 21 0;
#X connect 34 0 0 0;
#X connect 35 0 24 0;
#X connect 36 0 3 0;
#X connect 37 0 2 0;
#X connect 40 0 1 1;
#X connect 44 0 45 1;
#X connect 45 0 43 0;
#X connect 46 0 44 0;
#X connect 47 0 48 1;
#X connect 48 0 7 1;
#X connect 49 0 50 0;
#X restore 69 456 pd clocking;
#X msg 79 90 vis 1 1;
#X obj 883 430 s dsp_on_bang;
#X obj 883 398 delay 100;
#X obj 216 576 writesf~ 2;
#X msg 303 482 start;
#X msg 308 508 stop;
#X obj 442 461 random 50000;
#X obj 389 338 bng 15 250 50 0 empty empty empty 17 7 0 10 #fcfcfc #000000 #000000;
#X obj 327 419 delay 60000;
#X obj 416 378 t b b b;
#X msg 238 312 50;
#X obj 241 283 loadbang;
#X text 230 114 argument is number of samples to play (num_voices);
#N canvas 9 140 879 592 midi 0;
#X floatatom 57 94 5 0 0 0 - - - 0;
#X floatatom 285 147 5 0 0 0 - - - 0;
#X floatatom 69 217 5 0 0 0 - - - 0;
#X obj 69 173 ctlin 50;
#X obj 69 195 / 127;
#X obj 170 175 notein;
#X obj 197 203 / 100;
#X obj 76 19 ctlin 2;
#X obj 297 24 ctlin 4;
#X obj 89 113 + 0.01;
#X obj 287 111 / 4;
#X obj 70 513 noteout;
#X msg 71 487 60;
#X msg 105 487 100;
#X obj 81 452 bng 15 250 50 0 empty empty empty 17 7 0 10 #fcfcfc #000000 #000000;
#X obj 81 381 loadbang;
#X obj 85 417 delay 5000;
#X obj 379 29 ctlin 5;
#X obj 74 73 / 256;
#X obj 159 93 / 127;
#X obj 157 14 ctlin 3;
#X floatatom 39 17 5 0 0 0 - - - 0;
#X floatatom 215 15 5 0 0 0 - - - 0;
#X floatatom 26 172 5 0 0 0 - - - 0;
#X obj 65 51 + 2;
#X obj 169 48 + 2;
#X floatatom 261 23 5 0 0 0 - - - 0;
#X obj 281 76 + 9;
#X floatatom 440 29 5 0 0 0 - - - 0;
#X floatatom 217 50 5 0 0 0 - - - 0;
#X floatatom 101 46 5 0 0 0 - - - 0;
#X obj 74 140 s \$1-rate_rcv;
#X obj 58 241 s \$1-playstop_rcv;
#X obj 287 175 s \$1-numsteps_playing_rcv;
#X obj 159 114 s \$1-fadeout_rcv;
#X obj 379 69 s \$1-randomiser_rcv;
#X connect 0 0 31 0;
#X connect 1 0 33 0;
#X connect 2 0 32 0;
#X connect 3 0 4 0;
#X connect 4 0 2 0;
#X connect 5 1 6 0;
#X connect 6 0 32 0;
#X connect 7 0 24 0;
#X connect 7 0 30 0;
#X connect 8 0 27 0;
#X connect 9 0 31 0;
#X connect 10 0 1 0;
#X connect 12 0 11 0;
#X connect 13 0 11 1;
#X connect 14 0 13 0;
#X connect 14 0 12 0;
#X connect 15 0 16 0;
#X connect 16 0 14 0;
#X connect 17 0 35 0;
#X connect 18 0 0 0;
#X connect 19 0 34 0;
#X connect 20 0 25 0;
#X connect 20 0 29 0;
#X connect 21 0 24 0;
#X connect 22 0 25 0;
#X connect 23 0 4 0;
#X connect 24 0 18 0;
#X connect 25 0 19 0;
#X connect 26 0 27 0;
#X connect 27 0 10 0;
#X connect 28 0 35 0;
#X restore 170 485 pd midi;
#N canvas 453 107 951 765 serial 0;
#X floatatom 262 536 5 0 0 0 - - - 0;
#X obj 17 396 + 2;
#X obj 146 437 + 2;
#X floatatom 417 418 5 0 0 0 - - - 0;
#X obj 44 223 list prepend;
#X obj 44 245 list trim;
#X msg 28 71 devices;
#X msg 157 90 close;
#X msg 100 68 open 2;
#X floatatom 52 315 5 0 0 0 - - - 0;
#X floatatom 107 321 5 0 0 0 - - - 0;
#X obj 33 33 loadbang;
#X msg 101 40 open 1;
#X floatatom 162 315 5 0 0 0 - - - 0;
#X floatatom 215 317 5 0 0 0 - - - 0;
#X obj 53 294 route analog0 analog1 analog2 analog3 digital0;
#X floatatom 272 319 5 0 0 0 - - - 0;
#X msg 223 135 72;
#X msg 253 135 76;
#X obj 223 112 sel 1 0;
#X obj 246 79 tgl 15 0 empty empty empty 17 7 0 10 #fcfcfc #000000 #000000 0 1;
#X obj 44 201 serial_print any;
#X obj 374 302 change;
#X obj 374 323 sel 0;
#X obj 371 348 tgl 15 0 empty empty empty 17 7 0 10 #fcfcfc #000000 #000000 0 1;
#X obj 136 482 / 1023;
#X obj 259 511 + 2;
#X obj 52 466 / 1024;
#X obj 259 477 / 20;
#X msg 248 50 1;
#X obj 313 92 r loop_light;
#X obj 76 383 print;
#X obj 44 166 comport 0 9600;
#X msg 111 102 open 3;
#X obj 651 938 text get \$0-dirfiles;
#X floatatom 646 915 5 0 0 0 - - - 0;
#X obj 651 962 print;
#X obj 51 529 s \$1-rate_rcv;
#X obj 136 503 s \$1-fadeout_rcv;
#X obj 264 564 s \$1-numsteps_playing_rcv;
#X obj 356 458 s \$1-randomiser_rcv;
#X obj 368 381 s \$1-playstop_rcv;
#X obj 246 25 r \$1-dsp_on_bang;
#X connect 0 0 39 0;
#X connect 1 0 27 0;
#X connect 2 0 25 0;
#X connect 3 0 40 0;
#X connect 4 0 5 0;
#X connect 5 0 15 0;
#X connect 6 0 32 0;
#X connect 7 0 32 0;
#X connect 8 0 32 0;
#X connect 9 0 27 0;
#X connect 9 0 31 0;
#X connect 10 0 2 0;
#X connect 12 0 32 0;
#X connect 13 0 28 0;
#X connect 14 0 40 0;
#X connect 15 0 9 0;
#X connect 15 1 10 0;
#X connect 15 2 13 0;
#X connect 15 3 14 0;
#X connect 15 4 16 0;
#X connect 16 0 22 0;
#X connect 17 0 32 0;
#X connect 18 0 32 0;
#X connect 19 0 17 0;
#X connect 19 1 18 0;
#X connect 20 0 19 0;
#X connect 21 0 4 0;
#X connect 21 1 4 1;
#X connect 22 0 23 0;
#X connect 23 0 24 0;
#X connect 24 0 41 0;
#X connect 25 0 38 0;
#X connect 26 0 0 0;
#X connect 27 0 37 0;
#X connect 28 0 26 0;
#X connect 29 0 20 0;
#X connect 30 0 20 0;
#X connect 32 0 21 0;
#X connect 33 0 32 0;
#X connect 34 0 36 0;
#X connect 35 0 34 0;
#X connect 42 0 29 0;
#X restore 171 435 pd serial;
#N canvas 467 110 768 371 randomslopes 0;
#X obj 484 461 s pitchrange_rcv;
#X obj 109 461 s randomchance_rcv;
#X obj 351 461 s reversechance_rcv;
#X obj 230 462 s volume_rand_rcv;
#X obj 50 43 hsl 128 15 0 1023 0 0 empty empty empty -2 -8 0 10 #fcfcfc #000000 #000000 0 1;
#X msg 36 105 \$1 50;
#X obj 36 126 line;
#X obj 106 402 ys.randomslopes 1;
#X obj 225 401 ys.randomslopes 2;
#X obj 348 401 ys.randomslopes 3;
#X obj 481 408 ys.randomslopes 4;
#X floatatom 44 9 5 0 0 0 - - - 0;
#X obj 36 63 / 1023;
#X text 132 361 old system (uses 0-44100);
#X obj 44 251 s \$1-randomchance_rcv;
#X obj 165 252 s \$1-volume_rand_rcv;
#X obj 286 251 s \$1-reversechance_rcv;
#X obj 419 251 s \$1-pitchrange_rcv;
#X obj 94 5 r \$1-randomiser;
#X obj 36 166 ys.random_tables 1 \$1;
#X obj 157 164 ys.random_tables 2 \$1;
#X obj 280 164 ys.random_tables 3 \$1;
#X obj 396 162 ys.random_tables 4 \$1;
#X text 217 75 this was from the original Book of Knowledge instrument. Not using it just now but might be fun to revisit.;
#X connect 4 0 12 0;
#X connect 5 0 6 0;
#X connect 6 0 22 0;
#X connect 6 0 19 0;
#X connect 6 0 20 0;
#X connect 6 0 21 0;
#X connect 7 0 1 0;
#X connect 8 0 3 0;
#X connect 9 0 2 0;
#X connect 10 0 0 0;
#X connect 11 0 4 0;
#X connect 12 0 5 0;
#X connect 18 0 4 0;
#X connect 19 0 14 0;
#X connect 20 0 15 0;
#X connect 21 0 16 0;
#X connect 22 0 17 0;
#X restore 154 459 pd randomslopes;
#X msg 434 180 audio-properties;
#X obj 434 218 s pd;
#X msg 305 184 midi-properties;
#X obj 542 86 hsl 128 15 0 1023 0 0 \$1-randomiser \$1-randomiser_rcv randomiser -2 8 1 12 #fc0400 #9c9c9c #fcfcfc 0 1;
#X text 229 132 change this to stereo if desired (then restart);
#X msg 404 538 open recordings/record_\$1.wav;
#X obj 540 63 hsl 128 15 0 1 0 1 \$1-rate \$1-rate_rcv playback\ rate -2 8 1 12 #fc0400 #9c9c9c #fcfcfc 5842 1;
#X text 40 327 why was this here;
#X obj 35 119 clone ys.agency_mono 15 \$1;
#X obj 51 413 sample_selector \$1 \$2;
#X obj 394 307 r \$1-record_one_minute;
#X obj 84 585 outlet~;
#X obj 147 587 outlet~;
#X obj 58 515 catch~ \$1-audiooutL;
#X obj 188 513 catch~ \$1-audiooutR;
#X obj 144 163 throw~ \$1-audiooutL;
#X obj 270 165 throw~ \$1-audiooutR;
#X obj 54 154 r \$1-playstop;
#X obj 39 213 r \$1-play;
#X obj 110 213 r \$1-stop;
#X obj 239 347 s \$1-numsteps;
#X text 678 71 vestigial things;
#X obj 627 539 nbx 5 17 -1e+37 1e+37 0 1 empty empty empty 0 -10 0 12 #fcfcfc #000000 #000000 12 256;
#X obj 626 437 loadbang;
#X obj 626 461 bng 19 250 50 0 empty empty empty 0 -10 0 12 #fcfcfc #000000 #000000;
#X obj 626 507 +;
#X msg 626 485 1;
#X msg 607 657 menusave;
#X obj 604 701 s pd-subpatch;
#N canvas 96 86 771 708 subpatch 0;
#X coords 0 -1 1 1 50 50 1 100 100;
#X restore 614 727 pd subpatch;
#X obj 606 578 t b f;
#X obj 701 586 s \$1-seed;
#X obj 671 615 print \$1-seed;
#X obj 692 431 r \$1-new_seed;
#X connect 1 0 0 1;
#X connect 1 0 11 1;
#X connect 2 0 1 0;
#X connect 3 0 2 0;
#X connect 3 1 4 0;
#X connect 4 0 1 0;
#X connect 5 0 12 0;
#X connect 6 0 5 0;
#X connect 6 1 3 0;
#X connect 8 0 7 0;
#X connect 8 0 16 0;
#X connect 9 0 10 0;
#X connect 10 0 8 0;
#X connect 12 0 1 0;
#X connect 14 0 38 0;
#X connect 16 0 15 0;
#X connect 18 0 17 0;
#X connect 19 0 17 0;
#X connect 20 0 35 0;
#X connect 21 0 23 0;
#X connect 22 0 19 0;
#X connect 23 0 22 0;
#X connect 23 1 18 0;
#X connect 23 2 20 0;
#X connect 24 0 50 0;
#X connect 25 0 24 0;
#X connect 30 0 31 0;
#X connect 32 0 31 0;
#X connect 35 0 17 0;
#X connect 38 0 0 0;
#X connect 38 0 45 0;
#X connect 38 1 11 0;
#X connect 38 1 46 0;
#X connect 40 0 21 0;
#X connect 43 0 17 0;
#X connect 43 0 41 0;
#X connect 44 0 17 1;
#X connect 44 0 42 0;
#X connect 47 0 6 0;
#X connect 48 0 3 0;
#X connect 49 0 5 0;
#X connect 52 0 55 1;
#X connect 52 0 60 0;
#X connect 52 0 62 0;
#X connect 53 0 54 0;
#X connect 54 0 56 0;
#X connect 55 0 52 0;
#X connect 56 0 55 0;
#X connect 57 0 58 0;
#X connect 60 0 57 0;
#X connect 60 1 61 0;
#X connect 63 0 54 0;
#X restore 381 299 pd guts;
#X obj 43 86 hsl 128 15 0 2 0 0 empty \$1-location_view timing -2 8 1 12 #c4c4fc #c4fcfc #000000 0 1;
#X obj 42 124 hsl 128 15 0 1 0 1 \$1-fadeout \$1-fadeout_rcv fadeout -2 8 1 12 #fc0400 #fcfcfc #fcfcfc 400 0;
#X obj 42 181 hsl 128 15 0 1 0 1 \$1-volume_rand \$1-volume_rand_rcv volume\ randomise -2 8 1 12 #fc0400 #9c9c9c #fcfcfc 3400 1;
#X obj 190 200 bng 15 250 50 0 \$1-record_one_minute empty record\ one\ minute 17 7 0 10 #ffe3c6 #000000 #000000;
#X obj 326 131 nbx 5 14 -1e+37 1e+37 0 1 \$1-num_voices \$1-num_voices_rcv number\ of\ voices 0 -8 0 14 #ffe3c6 #000000 #000000 15 256;
#X obj 327 222 nbx 5 14 -1e+37 1e+37 0 1 \$1-numsamples \$1-numsamples_rcv number\ of\ samples 0 -8 0 14 #ffe3c6 #000000 #000000 63 256;
#X text 321 147 (also change in guts);
#X obj 123 105 tgl 15 0 \$1-rate_variation \$1-rate_variation_rcv rate\ variation 17 7 0 10 #fcfcfc #000000 #000000 0 1;
#X obj 42 218 hsl 128 15 0 1 0 1 \$1-pitchrange \$1-pitchrange_rcv pitch\ range -2 8 1 12 #fc0400 #9c9c9c #fcfcfc 0 1;
#X obj 39 105 nbx 5 14 40 200 0 1 \$1-bpm \$1-bpm_rcv bpm 60 8 0 10 #fcfcfc #000000 #000000 140 256;
#X obj 130 55 bng 25 250 50 0 \$1-play_next \$1-play_next_rcv play\ next 27 5 0 10 #c6ffc7 #000000 #000000;
#X obj 358 336 outlet~;
#X obj 411 335 outlet~;
#X obj 325 182 nbx 5 14 -1e+37 1e+37 0 1 empty \$1-seed current\ seed 0 -8 0 14 #ffe3c6 #000000 #000000 12 256;
#X obj 326 58 bng 25 250 50 0 \$1-new_seed \$1-new_seed_rcv new\ seed 27 5 0 10 #c6ffc7 #000000 #000000;
#X connect 5 0 17 0;
#X connect 5 1 18 0;
#X coords 0 -1 1 1 500 270 1 5 5;
