#N canvas 496 221 765 536 10;
#X obj 226 139 until;
#X obj 213 189 t b f;
#X msg 66 198 seed \$1;
#X floatatom 66 176 15 0 0 0 - - - 0;
#X obj 185 258 / 100;
#N canvas 0 22 450 278 (subpatch) 0;
#X array \$0-array 50 float 3;
#A 0 0.42 0.19 0.1 0.12 0.46 0.71 0.76 0.78 0.83 0.82 0.62 0.19 0.51 0.46 0.52 0.4 0.93 0.08 0.79 0.61 0.78 0.08 0.03 0.07 0.26 0.34 0.84 0.13 0.28 0.66 0.52 0.2 0.71 0.31 0.82 0.73 0.64 0.42 0.71 0.2 0.58 0.56 0.05 0.1 0.7 0.15 0.38 0.94 0.08 0;
#X coords 0 1 50 0 200 140 1 0 0;
#X restore 80 370 graph;
#X obj 190 325 array set \$0-array;
#X obj 185 235 random 100;
#X obj 388 189 tabread \$0-array;
#X obj 387 109 inlet;
#X obj 388 243 outlet;
#X floatatom 389 151 5 0 0 0 - - - 0;
#X floatatom 388 220 5 0 0 0 - - - 0;
#X obj 370 332 array size \$0-array;
#X floatatom 373 309 5 0 0 0 - - - 0;
#X obj 371 280 r numsteps;
#X obj 232 102 i;
#X obj 215 161 ys.loopcounter 16;
#X obj 68 101 * \$1;
#X obj 166 30 r \$2-sample_selector_go;
#X obj 309 30 r \$2-numsteps;
#X obj 67 76 r \$2-seed;
#X connect 0 0 17 0;
#X connect 1 0 7 0;
#X connect 1 1 6 1;
#X connect 2 0 7 0;
#X connect 3 0 2 0;
#X connect 4 0 6 0;
#X connect 7 0 4 0;
#X connect 8 0 12 0;
#X connect 9 0 11 0;
#X connect 11 0 8 0;
#X connect 12 0 10 0;
#X connect 14 0 13 0;
#X connect 15 0 14 0;
#X connect 16 0 0 0;
#X connect 17 0 1 0;
#X connect 18 0 3 0;
#X connect 19 0 16 0;
#X connect 20 0 16 1;
#X connect 20 0 17 2;
#X connect 21 0 18 0;
