#N canvas 188 140 1098 647 10;
#X obj 70 80 t b b;
#X obj 69 269 soundfiler;
#X obj 12 9 loadbang;
#X floatatom 68 296 5 0 0 0 - - - 0;
#X obj 210 16 inlet;
#X floatatom 67 429 5 0 0 0 - - - 0;
#X obj 36 275 bng 15 250 50 0 empty empty empty 17 7 0 10 #fcfcfc #000000 #000000;
#X obj 240 353 t b f;
#N canvas 0 22 450 278 (subpatch) 0;
#X array \$0-sound-L 1.81248e+06 float 2;
#X coords 0 1 1.81248e+06 -1 200 140 1 0 0;
#X restore 233 436 graph;
#X floatatom 240 323 5 0 0 0 - - - 0;
#X obj 67 394 / 44100;
#X obj 97 49 bng 15 250 50 0 empty empty empty 17 7 0 10 #fcfcfc #000000 #000000;
#X obj 203 186 i \$0;
#X obj 69 214 pack s f;
#X obj 80 332 s \$0-sample_samples;
#X obj 210 50 tgl 15 0 empty empty empty 17 7 0 10 #fcfcfc #000000 #000000 0 1;
#X obj 448 397 hsl 195 15 0 1.81248e+06 0 0 empty empty empty -2 -8 0 10 #fcfcfc #000000 #000000 0 1;
#X obj 632 291 r \$0-sample_samples;
#X obj 666 355 r \$0-currentloc;
#X obj 209 74 s \$0-playing;
#X obj 321 22 inlet;
#X floatatom 322 74 5 0 0 0 - - - 0;
#X obj 322 93 s \$0-pitch;
#X obj 391 40 f \$2;
#X obj 391 15 loadbang;
#X obj 466 245 outlet~;
#X obj 434 40 f \$0;
#X floatatom 434 62 5 0 0 0 - - - 0;
#X obj 764 415 /;
#X floatatom 764 437 5 0 0 0 - - - 0;
#X obj 767 468 outlet;
#X obj 487 23 inlet;
#X obj 613 17 inlet;
#X floatatom 487 45 5 0 1 0 - - - 0;
#X floatatom 613 38 5 0 1 0 - - - 0;
#X obj 487 64 s \$0-loopstart;
#X obj 613 58 s \$0-loopend;
#X text 685 37 loop points 0-1;
#X obj 729 59 loadbang;
#X msg 729 81 1;
#X text 810 430 sync output;
#X obj 196 290 unpack 0 0 0 0 s;
#X msg 631 323 range 0 \$1;
#X obj 833 51 s \$0-envelope;
#X floatatom 834 24 5 0 0 0 - - - 0;
#X obj 67 448 s \$0-sample_s;
#X obj 812 234 s \$0-oneshot;
#X obj 813 204 bng 15 250 50 0 empty empty empty 17 7 0 10 #fcfcfc #000000 #000000;
#X obj 817 167 inlet;
#X obj 915 204 bng 15 250 50 0 empty empty empty 17 7 0 10 #fcfcfc #000000 #000000;
#X obj 919 167 inlet;
#X obj 914 234 s \$0-oneshot-rev;
#X obj 56 114 \$1;
#X obj 987 112 inlet;
#X obj 288 244 print soundloaded;
#X obj 119 51 bng 15 250 50 0 empty empty empty 17 7 0 10 #fcfcfc #000000 #000000;
#X obj 909 332 outlet;
#X obj 131 92 print soundfile_loop_bang;
#X obj 461 208 y_soundclock_mono \$0;
#X msg 69 241 read -resize \$1 \$2-sound-L;
#X floatatom 62 162 5 0 0 0 - - - 0;
#X obj 83 3 r \$3-sample_selector_go;
#X obj 56 136 tabread \$3-sample_selector;
#X obj 67 185 text get soundlist;
#X obj 458 161 bng 16 250 50 0 empty empty empty 0 -8 0 10 #fcfcfc #000000 #000000;
#X obj 458 140 r \$1-stopsound;
#X connect 0 0 52 0;
#X connect 0 1 12 0;
#X connect 1 0 3 0;
#X connect 3 0 10 0;
#X connect 3 0 14 0;
#X connect 4 0 15 0;
#X connect 5 0 45 0;
#X connect 6 0 3 0;
#X connect 7 0 10 0;
#X connect 7 1 10 1;
#X connect 9 0 7 0;
#X connect 10 0 5 0;
#X connect 11 0 0 0;
#X connect 12 0 13 1;
#X connect 13 0 59 0;
#X connect 15 0 19 0;
#X connect 17 0 42 0;
#X connect 17 0 28 1;
#X connect 17 0 56 0;
#X connect 18 0 16 0;
#X connect 18 0 28 0;
#X connect 20 0 21 0;
#X connect 21 0 22 0;
#X connect 23 0 21 0;
#X connect 24 0 23 0;
#X connect 24 0 26 0;
#X connect 26 0 27 0;
#X connect 28 0 29 0;
#X connect 29 0 30 0;
#X connect 31 0 33 0;
#X connect 32 0 34 0;
#X connect 33 0 35 0;
#X connect 34 0 36 0;
#X connect 38 0 39 0;
#X connect 39 0 34 0;
#X connect 41 0 9 0;
#X connect 42 0 16 0;
#X connect 44 0 43 0;
#X connect 47 0 46 0;
#X connect 48 0 47 0;
#X connect 49 0 51 0;
#X connect 50 0 49 0;
#X connect 52 0 62 0;
#X connect 53 0 13 0;
#X connect 55 0 0 0;
#X connect 55 0 57 0;
#X connect 58 0 25 0;
#X connect 59 0 1 0;
#X connect 60 0 63 0;
#X connect 61 0 11 0;
#X connect 62 0 60 0;
#X connect 63 0 13 0;
#X connect 63 0 54 0;
#X connect 64 0 58 0;
#X connect 65 0 64 0;
